<?xml version="1.0" encoding="UTF-8"?>
<svg version="1.1" xmlns="http://www.w3.org/2000/svg" width="203" height="205">
<path d="M0 0 C66.99 0 133.98 0 203 0 C203 67.65 203 135.3 203 205 C136.01 205 69.02 205 0 205 C0 137.35 0 69.7 0 0 Z " fill="#FDFCFC" transform="translate(0,0)"/>
<path d="M0 0 C1 1 1 1 1.3125 4.5625 C1.16051247 13.08900042 -4.25800187 19.18740353 -10 25 C-12.58282014 27.44054615 -15.2667276 29.7301544 -18 32 C-19.42699219 33.2065625 -19.42699219 33.2065625 -20.8828125 34.4375 C-28.73730469 41 -28.73730469 41 -31 41 C-30.855625 41.66644531 -30.71125 42.33289063 -30.5625 43.01953125 C-29.20300177 49.76981758 -28.76057859 56.12328495 -29 63 C-28.10474609 62.27103516 -28.10474609 62.27103516 -27.19140625 61.52734375 C-24.25603385 59.48147814 -22.50457046 59.4780427 -19 60 C-16.6909921 62.07810711 -16.08859035 63.38862926 -15.64453125 66.453125 C-16 69 -16 69 -18.00390625 70.59765625 C-19.27041016 71.32275391 -19.27041016 71.32275391 -20.5625 72.0625 C-23.11153008 73.74077272 -23.11153008 73.74077272 -25 76 C-25.58430534 80.19030401 -24.90571873 83.89631141 -24 88 C-22.69954547 94.0719064 -21.33943049 100.64640686 -24.19921875 106.421875 C-26.77220781 109.97350725 -28.94319928 112.22735447 -33 114 C-36.65354238 106.87764492 -40.17760792 99.81979288 -43.05078125 92.33984375 C-44.37182549 89.08344251 -45.96590114 85.99161715 -47.5625 82.86328125 C-49.36776301 79.26747204 -51.09841821 75.63998718 -52.8125 72 C-53.12678955 71.34040283 -53.4410791 70.68080566 -53.76489258 70.0012207 C-56 65.23386002 -56 65.23386002 -56 63 C-61.71764689 66.10277638 -66.89271172 69.70553128 -72.125 73.5625 C-73.6887117 74.71153282 -75.25377812 75.85872471 -76.8203125 77.00390625 C-77.50367676 77.50736572 -78.18704102 78.0108252 -78.89111328 78.52954102 C-81 80 -81 80 -83.74389648 81.30859375 C-86.29342004 82.81631365 -86.29342004 82.81631365 -86.47241211 85.75561523 C-86.40803955 86.84559814 -86.34366699 87.93558105 -86.27734375 89.05859375 C-86.23416016 90.24904297 -86.19097656 91.43949219 -86.14648438 92.66601562 C-86.0073651 95.1766634 -85.86414759 97.6870875 -85.71679688 100.19726562 C-85.59893697 103.54992674 -85.52364541 106.67822063 -86 110 C-89.00947764 112.97608538 -91.06097542 113.68699181 -95 115 C-98.34355085 108.10261207 -101.5196602 101.54973297 -103 94 C-112.54199343 102.41940597 -117.55680849 114.89595732 -119.51953125 127.27734375 C-119.94193831 134.91014112 -117.61327033 140.00035827 -113 146 C-108.78949937 150.21050063 -102.73696129 150.27167055 -97.0703125 150.32226562 C-96.26335937 150.31904297 -95.45640625 150.31582031 -94.625 150.3125 C-93.42617187 150.33666992 -93.42617187 150.33666992 -92.203125 150.36132812 C-86.28149318 150.36611909 -81.50227074 149.10891022 -76 147 C-75.08992188 146.70738281 -74.17984375 146.41476563 -73.2421875 146.11328125 C-66.76455405 143.92200261 -60.94332513 140.96642191 -55.03857422 137.55395508 C-53.39781208 136.63013372 -51.70132183 135.8068769 -50 135 C-49.01 135.33 -48.02 135.66 -47 136 C-60.38389724 146.72232677 -75.03727737 154.75975229 -91 161 C-92.01211548 161.41934814 -92.01211548 161.41934814 -93.04467773 161.84716797 C-99.42759976 164.27718156 -105.40862641 164.45046056 -112.1875 164.375 C-113.24130859 164.38660156 -114.29511719 164.39820313 -115.38085938 164.41015625 C-121.07996705 164.38860953 -125.18004478 164.14670652 -130 161 C-130 160.34 -130 159.68 -130 159 C-130.60328125 158.92007813 -131.2065625 158.84015625 -131.828125 158.7578125 C-134.74258282 157.74089736 -135.30634262 156.57517399 -136.75 153.875 C-140.39256246 145.94507366 -140.29600747 137.56937929 -137.9375 129.25390625 C-136.29267286 124.86280523 -134.60386626 120.9057994 -132 117 C-133.00160156 117.67546875 -134.00320312 118.3509375 -135.03515625 119.046875 C-136.3775199 119.9480422 -137.71997258 120.84907679 -139.0625 121.75 C-139.71927734 122.1934375 -140.37605469 122.636875 -141.05273438 123.09375 C-153.19105685 131.22582811 -164.03943881 135.54764426 -179 134 C-184.11807525 132.81890571 -186.59634481 129.64657512 -189.4375 125.375 C-195.50881706 113.08547918 -192.13692671 98.97632281 -188.2890625 86.5 C-187 83 -187 83 -185 81 C-184.37290015 79.517764 -183.7961644 78.0139294 -183.25 76.5 C-177.4847969 61.80397319 -166.77711038 48.39470983 -156 37 C-156 41.08498478 -157.66008266 42.59423642 -160.0625 45.875 C-166.19974173 54.48536785 -171.71886808 63.35804796 -174.39453125 73.68359375 C-175 76 -175 76 -176.04296875 78.6953125 C-177.28770841 82.99347476 -177.44428323 86.98364107 -177.5 91.4375 C-177.561875 92.66823242 -177.561875 92.66823242 -177.625 93.92382812 C-177.69751369 99.6025562 -176.49787568 102.53618635 -172.60009766 106.6706543 C-167.18361642 111.17061468 -158.71598679 110.58094007 -152 111 C-152 110.34 -152 109.68 -152 109 C-151.07960937 108.6596875 -150.15921875 108.319375 -149.2109375 107.96875 C-136.99140131 103.33639054 -125.74547546 97.73303197 -115.671875 89.25 C-114 88 -114 88 -112 88 C-113.29480889 85.57223333 -114.35838519 84.23032326 -116.98046875 83.2890625 C-118.9738726 82.80217802 -120.98658625 82.39608139 -123 82 C-123 81.34 -123 80.68 -123 80 C-124.32 80 -125.64 80 -127 80 C-128.5625 78.625 -128.5625 78.625 -130 77 C-130.99 76.34 -131.98 75.68 -133 75 C-131.49283703 71.16358517 -129.51586512 69.14009181 -126 67 C-120.06873928 66.61774904 -115.02604745 67.4886416 -109.3125 69 C-102.75492503 70.73527831 -102.75492503 70.73527831 -96 71 C-95.74476562 70.42894531 -95.48953125 69.85789062 -95.2265625 69.26953125 C-91.63474471 62.62352444 -85.48462887 57.313664 -79.76171875 52.5078125 C-77.97009861 51.02757966 -77.97009861 51.02757966 -76.39453125 49.3046875 C-75 48 -75 48 -73 48 C-73.33 47.01 -73.66 46.02 -74 45 C-75.70266028 44.2141568 -77.41119652 43.43657842 -79.15625 42.75 C-82.27810987 41.4800909 -85.08565455 39.96753452 -87.41015625 37.5078125 C-89.13898059 35.8681904 -90.47788422 35.2345362 -92.6875 34.375 C-97.42672733 32.36180756 -101.88643839 29.94835062 -106.375 27.4375 C-107.07713623 27.04933105 -107.77927246 26.66116211 -108.50268555 26.26123047 C-109.16953369 25.88498535 -109.83638184 25.50874023 -110.5234375 25.12109375 C-111.12075684 24.7852124 -111.71807617 24.44933105 -112.33349609 24.10327148 C-114.13238733 22.91235594 -115.4946294 21.53773567 -117 20 C-118.80190614 19.02284391 -118.80190614 19.02284391 -120.6875 18.3125 C-122.3271875 17.6628125 -122.3271875 17.6628125 -124 17 C-122.8328203 13.4984609 -121.23784945 12.06271012 -118.20703125 10.01953125 C-110.3594244 6.39435357 -100.81326959 9.70919844 -93 12 C-93 12.66 -93 13.32 -93 14 C-90.03 14.33 -87.06 14.66 -84 15 C-83.34 13.68 -82.68 12.36 -82 11 C-77.17167382 6.27896996 -77.17167382 6.27896996 -73.375 5.375 C-71 6 -71 6 -68.625 8.1875 C-67 11 -67 11 -67.125 13.625 C-68 16 -68 16 -70 19 C-69.21496094 19.19335938 -68.42992187 19.38671875 -67.62109375 19.5859375 C-66.57050781 19.84632812 -65.51992187 20.10671875 -64.4375 20.375 C-62.79394531 20.78105469 -62.79394531 20.78105469 -61.1171875 21.1953125 C-58.72906976 21.81179402 -56.40585084 22.48971284 -54.0625 23.25 C-50.66324527 24.08247055 -49.30405716 24.06287719 -46 23 C-43.88696782 21.36641942 -41.95823887 19.7369385 -40 17.9375 C-33.74827899 12.42819331 -27.30741193 8.05437346 -20 4 C-19.19820312 3.54496094 -18.39640625 3.08992188 -17.5703125 2.62109375 C-11.83711789 -0.30671204 -6.37758868 -0.69470162 0 0 Z " fill="#F06027" transform="translate(197,22)"/>
<path d="M0 0 C0 4.08498478 -1.66008266 5.59423642 -4.0625 8.875 C-10.19974173 17.48536785 -15.71886808 26.35804796 -18.39453125 36.68359375 C-19 39 -19 39 -20.04296875 41.6953125 C-21.28770841 45.99347476 -21.44428323 49.98364107 -21.5 54.4375 C-21.54125 55.25798828 -21.5825 56.07847656 -21.625 56.92382812 C-21.69751369 62.6025562 -20.49787568 65.53618635 -16.60009766 69.6706543 C-11.18361642 74.17061468 -2.71598679 73.58094007 4 74 C4 73.34 4 72.68 4 72 C4.92039063 71.6596875 5.84078125 71.319375 6.7890625 70.96875 C19.63869591 66.09793798 30.94775511 59.88634223 41.890625 51.46875 C44 50 44 50 46 50 C46 51.65 46 53.3 46 55 C47.98 55 49.96 55 52 55 C52.33 55.66 52.66 56.32 53 57 C51.948125 57.928125 51.948125 57.928125 50.875 58.875 C42.2274185 67.66915068 36.99026679 81.0654118 36.3125 93.3125 C36.6092679 100.38706381 40.06287076 106.06287076 45 111 C50.51161246 113.00486674 55.54351299 113.33578869 61.375 113.3125 C62.57382813 113.33666992 62.57382813 113.33666992 63.796875 113.36132812 C69.71850682 113.36611909 74.49772926 112.10891022 80 110 C80.91007812 109.70738281 81.82015625 109.41476563 82.7578125 109.11328125 C89.23544595 106.92200261 95.05667487 103.96642191 100.96142578 100.55395508 C102.60218792 99.63013372 104.29867817 98.8068769 106 98 C106.99 98.33 107.98 98.66 109 99 C95.61610276 109.72232677 80.96272263 117.75975229 65 124 C64.32525635 124.27956543 63.6505127 124.55913086 62.95532227 124.84716797 C56.57240024 127.27718156 50.59137359 127.45046056 43.8125 127.375 C42.75869141 127.38660156 41.70488281 127.39820313 40.61914062 127.41015625 C34.92003295 127.38860953 30.81995522 127.14670652 26 124 C26 123.34 26 122.68 26 122 C25.39671875 121.92007813 24.7934375 121.84015625 24.171875 121.7578125 C21.25741718 120.74089736 20.69365738 119.57517399 19.25 116.875 C15.60743754 108.94507366 15.70399253 100.56937929 18.0625 92.25390625 C19.70732714 87.86280523 21.39613374 83.9057994 24 80 C22.99839844 80.67546875 21.99679688 81.3509375 20.96484375 82.046875 C19.6224801 82.9480422 18.28002742 83.84907679 16.9375 84.75 C16.28072266 85.1934375 15.62394531 85.636875 14.94726562 86.09375 C2.80894315 94.22582811 -8.03943881 98.54764426 -23 97 C-28.11807525 95.81890571 -30.59634481 92.64657512 -33.4375 88.375 C-39.50881706 76.08547918 -36.13692671 61.97632281 -32.2890625 49.5 C-31 46 -31 46 -29 44 C-28.37290015 42.517764 -27.7961644 41.0139294 -27.25 39.5 C-21.4847969 24.80397319 -10.77711038 11.39470983 0 0 Z " fill="#2E4781" transform="translate(41,59)"/>
<path d="M0 0 C0 4.08498478 -1.66008266 5.59423642 -4.0625 8.875 C-10.71708406 18.21118377 -16.33351504 27.74997298 -19 39 C-19.68707555 36.50935112 -20 34.62113708 -20 32 C-20.45375 32.66 -20.9075 33.32 -21.375 34 C-21.91125 34.66 -22.4475 35.32 -23 36 C-23.66 36 -24.32 36 -25 36 C-23.4895117 30.13741729 -20.40506517 25.71783835 -17 20.8125 C-16.42419189 19.97549561 -15.84838379 19.13849121 -15.25512695 18.27612305 C-10.64223572 11.68090603 -5.67761029 5.70324284 0 0 Z " fill="#465A8A" transform="translate(41,59)"/>
<path d="M0 0 C0.99 0.66 1.98 1.32 3 2 C-0.3 1.67 -3.6 1.34 -7 1 C-9 4.76429774 -9 4.76429774 -10 8 C-9.34 8.33 -8.68 8.66 -8 9 C-8 9.66 -8 10.32 -8 11 C-6.68 11.33 -5.36 11.66 -4 12 C-4 12.66 -4 13.32 -4 14 C-2.35 14.33 -0.7 14.66 1 15 C-1.49092811 16.24546405 -2.41080733 15.7767578 -5 15 C-5 14.34 -5 13.68 -5 13 C-6.32 13 -7.64 13 -9 13 C-10.5625 11.625 -10.5625 11.625 -12 10 C-12.99 9.34 -13.98 8.68 -15 8 C-12.10455886 0.62978618 -7.26912864 -0.70346406 0 0 Z " fill="#F09975" transform="translate(79,89)"/>
<path d="M0 0 C0 4.01857416 -1.97494885 6.12829436 -4.25 9.25 C-7.42997033 13.71463113 -10.41316585 18.16374484 -13 23 C-13.99 23 -14.98 23 -16 23 C-16 14.74101486 -5.39594419 5.81212073 0 0 Z " fill="#586A93" transform="translate(41,59)"/>
<path d="M0 0 C0.99 0.33 1.98 0.66 3 1 C-9.12121212 11 -9.12121212 11 -17 11 C-18.67056149 11.31323028 -20.33958925 11.63678515 -22 12 C-18.30542924 8.92441492 -14.16542886 6.97032572 -9.875 4.875 C-9.14667969 4.51535156 -8.41835937 4.15570313 -7.66796875 3.78515625 C-5.78025154 2.85351023 -3.89027614 1.92644303 -2 1 C-1.34 0.67 -0.68 0.34 0 0 Z " fill="#61739D" transform="translate(147,157)"/>
<path d="M0 0 C-9.34827573 4.52270791 -17.87863851 4.4271618 -28 4 C-28 3.67 -28 3.34 -28 3 C-26.53240234 2.94392578 -26.53240234 2.94392578 -25.03515625 2.88671875 C-18.29329895 2.54863151 -12.11697527 2.22583947 -5.83203125 -0.4765625 C-3.56560122 -1.12411394 -2.20683416 -0.73398032 0 0 Z " fill="#7C8CAE" transform="translate(125,170)"/>
<path d="M0 0 C-0.268125 0.66 -0.53625 1.32 -0.8125 2 C-2.25705047 5.64939067 -3.62871178 9.32245433 -5 13 C-5.93423645 9.98968256 -6.04449911 9.13349732 -5 6 C-6.65 6.33 -8.3 6.66 -10 7 C-3.24137931 0 -3.24137931 0 0 0 Z " fill="#ADB7CE" transform="translate(65,139)"/>
<path d="M0 0 C-4.455 3.465 -4.455 3.465 -9 7 C-9.33 6.34 -9.66 5.68 -10 5 C-10.66 4.67 -11.32 4.34 -12 4 C-10.56988027 3.13353333 -9.13059381 2.28218171 -7.6875 1.4375 C-6.48673828 0.72400391 -6.48673828 0.72400391 -5.26171875 -0.00390625 C-3 -1 -3 -1 0 0 Z " fill="#7482A6" transform="translate(150,158)"/>
<path d="M0 0 C0.66 0.99 1.32 1.98 2 3 C0.625 5 0.625 5 -1 7 C-1.66 7 -2.32 7 -3 7 C-1.125 1.125 -1.125 1.125 0 0 Z M3 0 C4.125 1.625 4.125 1.625 5 4 C4.125 7.25 4.125 7.25 3 10 C2.0902357 6.92954549 1.82700019 4.20049657 2 1 C2.33 0.67 2.66 0.34 3 0 Z " fill="#62749D" transform="translate(19,88)"/>
<path d="M0 0 C0 3.78405089 -1.1678033 5.11032647 -3.3125 8.1875 C-3.92738281 9.08855469 -4.54226562 9.98960938 -5.17578125 10.91796875 C-5.77777344 11.60503906 -6.37976562 12.29210937 -7 13 C-7.99 13 -8.98 13 -10 13 C-8.48446596 9.52224821 -6.4226544 7.0442016 -3.875 4.25 C-3.15054688 3.45078125 -2.42609375 2.6515625 -1.6796875 1.828125 C-0.84824219 0.92320313 -0.84824219 0.92320313 0 0 Z " fill="#9DA7BE" transform="translate(41,59)"/>
<path d="M0 0 C0.66 0 1.32 0 2 0 C3.42944945 2.35438733 4.08661261 3.48032433 3.625 6.25 C3.41875 6.8275 3.2125 7.405 3 8 C2.01 6.68 1.02 5.36 0 4 C-0.99 4.33 -1.98 4.66 -3 5 C-1.125 1.125 -1.125 1.125 0 0 Z " fill="#E4CAC3" transform="translate(92,116)"/>
<path d="M0 0 C0.66 0 1.32 0 2 0 C2 1.65 2 3.3 2 5 C3.98 5 5.96 5 8 5 C8.33 5.66 8.66 6.32 9 7 C5.71023192 8.09658936 4.28696233 7.79953138 1 7 C0.67 4.69 0.34 2.38 0 0 Z " fill="#7F5765" transform="translate(85,109)"/>
<path d="M0 0 C0.99 0.66 1.98 1.32 3 2 C0.69 3.32 -1.62 4.64 -4 6 C-3.67 4.35 -3.34 2.7 -3 1 C-2.01 0.67 -1.02 0.34 0 0 Z " fill="#3A5085" transform="translate(133,166)"/>
</svg>
